<svg width="100" height="49" xmlns="http://www.w3.org/2000/svg">
  <g>
    <title>Layer 1</title>
    <g stroke="null" id="svg_7">
      <path stroke="#000" stroke-width="5" id="svg_1" d="m2.23319,9.81067l0,0c0.01247,-4.05175 4.96324,-7.32482 11.05786,-7.31062l74.23729,0.17299c2.92675,0.00682 5.73123,0.78629 7.79651,2.16695c2.06527,1.38065 3.22218,3.24939 3.21619,5.19511l-0.05645,18.34084l0,0l-0.03387,11.0045l0,0c-0.01247,4.05175 -4.96324,7.32482 -11.05786,7.31062l-74.23729,-0.17299c-6.09461,-0.0142 -11.02517,-3.3103 -11.01269,-7.36205l0,0l0.03387,-11.0045l0,0l0.05645,-18.34084l-0.00001,-0.00001z" fill="#fff" />
      <path stroke="#000" id="svg_3" d="m40.25827,41.46729l24.30411,-4.27132l-8.34687,-12.41521l24.0767,-5.90742l2.49043,5.29639l8.89235,-15.08034l-18.34009,-2.90217l3.28182,5.96539l-33.07533,9.47283l10.36867,12.44626l-25.44258,4.37386l11.7908,3.02173l-0.00001,0l0.00001,0l-0.00001,0z" stroke-width="0" fill="#000000" />
      <text stroke="#000" transform="matrix(1.14659 0.00267174 -0.00269733 0.876357 -33.998 -5.50971)" font-style="normal" font-weight="normal" xml:space="preserve" text-anchor="start" font-family="'Noto Sans Mono'" font-size="16" id="svg_6" y="29.45438" x="39.09249" stroke-width="2" fill="#fff">FPS</text>
    </g>
  </g>
</svg>